{
	"asset":{
		"generator":"Khronos glTF Blender I/O v5.0.21",
		"version":"2.0"
	},
	"extensionsUsed":[
		"KHR_materials_specular"
	],
	"scene":0,
	"scenes":[
		{
			"name":"Scene",
			"nodes":[
				1
			]
		}
	],
	"nodes":[
		{
			"mesh":0,
			"name":"Body1.001",
			"translation":[
				0,
				-31.626317977905273,
				7.1019673347473145
			]
		},
		{
			"children":[
				0
			],
			"mesh":1,
			"name":"Body1",
			"scale":[
				0.010000000707805157,
				0.010000000707805157,
				0.010000000707805157
			]
		}
	],
	"materials":[
		{
			"doubleSided":true,
			"extensions":{
				"KHR_materials_specular":{
					"specularColorFactor":[
						0.4000000059604645,
						0.4000000059604645,
						0.4000000059604645
					]
				}
			},
			"name":"Steel - Satin",
			"pbrMetallicRoughness":{
				"baseColorFactor":[
					0.6274510025978088,
					0.6274510025978088,
					0.6274510025978088,
					1
				],
				"metallicFactor":0,
				"roughnessFactor":0.5527864098548889
			}
		}
	],
	"meshes":[
		{
			"name":"Body1.001",
			"primitives":[
				{
					"attributes":{
						"POSITION":0,
						"NORMAL":1,
						"TEXCOORD_0":2
					},
					"indices":3,
					"material":0
				}
			]
		},
		{
			"name":"Body1",
			"primitives":[
				{
					"attributes":{
						"POSITION":4,
						"NORMAL":5,
						"TEXCOORD_0":6
					},
					"indices":7,
					"material":0
				}
			]
		}
	],
	"accessors":[
		{
			"bufferView":0,
			"componentType":5126,
			"count":32,
			"max":[
				795,
				547.7709350585938,
				-47.10227966308594
			],
			"min":[
				724.999755859375,
				418.36077880859375,
				-617.102294921875
			],
			"type":"VEC3"
		},
		{
			"bufferView":1,
			"componentType":5126,
			"count":32,
			"type":"VEC3"
		},
		{
			"bufferView":2,
			"componentType":5126,
			"count":32,
			"type":"VEC2"
		},
		{
			"bufferView":3,
			"componentType":5123,
			"count":60,
			"type":"SCALAR"
		},
		{
			"bufferView":4,
			"componentType":5126,
			"count":16831,
			"max":[
				801.67431640625,
				1038.391357421875,
				850.000244140625
			],
			"min":[
				-600.0003662109375,
				-135,
				-1393.000244140625
			],
			"type":"VEC3"
		},
		{
			"bufferView":5,
			"componentType":5126,
			"count":16831,
			"type":"VEC3"
		},
		{
			"bufferView":6,
			"componentType":5126,
			"count":16831,
			"type":"VEC2"
		},
		{
			"bufferView":7,
			"componentType":5123,
			"count":59376,
			"type":"SCALAR"
		}
	],
	"bufferViews":[
		{
			"buffer":0,
			"byteLength":384,
			"byteOffset":0,
			"target":34962
		},
		{
			"buffer":0,
			"byteLength":384,
			"byteOffset":384,
			"target":34962
		},
		{
			"buffer":0,
			"byteLength":256,
			"byteOffset":768,
			"target":34962
		},
		{
			"buffer":0,
			"byteLength":120,
			"byteOffset":1024,
			"target":34963
		},
		{
			"buffer":0,
			"byteLength":201972,
			"byteOffset":1144,
			"target":34962
		},
		{
			"buffer":0,
			"byteLength":201972,
			"byteOffset":203116,
			"target":34962
		},
		{
			"buffer":0,
			"byteLength":134648,
			"byteOffset":405088,
			"target":34962
		},
		{
			"buffer":0,
			"byteLength":118752,
			"byteOffset":539736,
			"target":34963
		}
	],
	"buffers":[
		{
			"byteLength":658488,
			"uri":"house.bin"
		}
	]
}
