{
	"asset":{
		"generator":"Khronos glTF Blender I/O v5.0.21",
		"version":"2.0"
	},
	"scene":0,
	"scenes":[
		{
			"name":"Scene",
			"nodes":[
				8
			]
		}
	],
	"nodes":[
		{
			"mesh":0,
			"name":"Cube.001"
		},
		{
			"mesh":1,
			"name":"Cube.002"
		},
		{
			"mesh":2,
			"name":"Cube.003"
		},
		{
			"mesh":3,
			"name":"Cube.004"
		},
		{
			"mesh":4,
			"name":"Text",
			"rotation":[
				0.5,
				0.5,
				-0.5,
				0.5
			],
			"scale":[
				2.54079532623291,
				2.54079532623291,
				2.54079532623291
			],
			"translation":[
				0.9999958276748657,
				0,
				-15
			]
		},
		{
			"mesh":5,
			"name":"Text.001",
			"rotation":[
				0.5000002384185791,
				-0.4999998211860657,
				0.4999997615814209,
				0.5000001788139343
			],
			"scale":[
				2.54079532623291,
				2.54079532623291,
				2.54079532623291
			],
			"translation":[
				-1.0000042915344238,
				0,
				-15
			]
		},
		{
			"mesh":6,
			"name":"Text.002",
			"rotation":[
				0,
				-0.7071068286895752,
				0.7071068286895752,
				1.3767879636361613e-07
			],
			"scale":[
				1.7459261417388916,
				2.54079532623291,
				2.54079532623291
			],
			"translation":[
				-4.514079591899645e-06,
				0,
				-16
			]
		},
		{
			"mesh":7,
			"name":"Text.003",
			"rotation":[
				0.7071068286895752,
				0,
				0,
				0.7071068286895752
			],
			"scale":[
				2.54079532623291,
				2.54079532623291,
				2.54079532623291
			],
			"translation":[
				-3.949819529225351e-06,
				0,
				-14
			]
		},
		{
			"children":[
				0,
				1,
				2,
				3,
				4,
				5,
				6,
				7
			],
			"mesh":8,
			"name":"Cube"
		}
	],
	"materials":[
		{
			"doubleSided":true,
			"name":"Material",
			"pbrMetallicRoughness":{
				"baseColorFactor":[
					0.800000011920929,
					0.800000011920929,
					0.800000011920929,
					1
				],
				"metallicFactor":0,
				"roughnessFactor":0.5
			}
		}
	],
	"meshes":[
		{
			"name":"Cube.002",
			"primitives":[
				{
					"attributes":{
						"POSITION":0,
						"NORMAL":1,
						"TEXCOORD_0":2
					},
					"indices":3
				}
			]
		},
		{
			"name":"Cube.003",
			"primitives":[
				{
					"attributes":{
						"POSITION":4,
						"NORMAL":5,
						"TEXCOORD_0":6
					},
					"indices":3
				}
			]
		},
		{
			"name":"Cube.004",
			"primitives":[
				{
					"attributes":{
						"POSITION":7,
						"NORMAL":8,
						"TEXCOORD_0":9
					},
					"indices":10
				}
			]
		},
		{
			"name":"Cube.005",
			"primitives":[
				{
					"attributes":{
						"POSITION":11,
						"NORMAL":12,
						"TEXCOORD_0":13
					},
					"indices":14
				}
			]
		},
		{
			"name":"Text",
			"primitives":[
				{
					"attributes":{
						"POSITION":15,
						"NORMAL":16,
						"TEXCOORD_0":17
					},
					"indices":18
				}
			]
		},
		{
			"name":"Text.002",
			"primitives":[
				{
					"attributes":{
						"POSITION":19,
						"NORMAL":20,
						"TEXCOORD_0":21
					},
					"indices":22
				}
			]
		},
		{
			"name":"Text.003",
			"primitives":[
				{
					"attributes":{
						"POSITION":23,
						"NORMAL":24,
						"TEXCOORD_0":25
					},
					"indices":26
				}
			]
		},
		{
			"name":"Text.004",
			"primitives":[
				{
					"attributes":{
						"POSITION":27,
						"NORMAL":28,
						"TEXCOORD_0":29
					},
					"indices":30
				}
			]
		},
		{
			"name":"Cube",
			"primitives":[
				{
					"attributes":{
						"POSITION":31,
						"NORMAL":32,
						"TEXCOORD_0":33
					},
					"indices":34,
					"material":0
				}
			]
		}
	],
	"accessors":[
		{
			"bufferView":0,
			"componentType":5126,
			"count":24,
			"max":[
				5.000002384185791,
				9,
				5.000002384185791
			],
			"min":[
				-5.000002384185791,
				0,
				-5.000002384185791
			],
			"type":"VEC3"
		},
		{
			"bufferView":1,
			"componentType":5126,
			"count":24,
			"type":"VEC3"
		},
		{
			"bufferView":2,
			"componentType":5126,
			"count":24,
			"type":"VEC2"
		},
		{
			"bufferView":3,
			"componentType":5123,
			"count":36,
			"type":"SCALAR"
		},
		{
			"bufferView":4,
			"componentType":5126,
			"count":24,
			"max":[
				9.000001907348633,
				4,
				4.999997615814209
			],
			"min":[
				4.999997615814209,
				0,
				-5.000003814697266
			],
			"type":"VEC3"
		},
		{
			"bufferView":5,
			"componentType":5126,
			"count":24,
			"type":"VEC3"
		},
		{
			"bufferView":6,
			"componentType":5126,
			"count":24,
			"type":"VEC2"
		},
		{
			"bufferView":7,
			"componentType":5126,
			"count":48,
			"max":[
				8.999996185302734,
				0,
				-8.000001907348633
			],
			"min":[
				4.999994277954102,
				-2,
				-12.000004768371582
			],
			"type":"VEC3"
		},
		{
			"bufferView":8,
			"componentType":5126,
			"count":48,
			"type":"VEC3"
		},
		{
			"bufferView":9,
			"componentType":5126,
			"count":48,
			"type":"VEC2"
		},
		{
			"bufferView":10,
			"componentType":5123,
			"count":84,
			"type":"SCALAR"
		},
		{
			"bufferView":11,
			"componentType":5126,
			"count":18,
			"max":[
				5.000002384185791,
				12,
				5.000002384185791
			],
			"min":[
				-5.000002384185791,
				9,
				-5.000002384185791
			],
			"type":"VEC3"
		},
		{
			"bufferView":12,
			"componentType":5126,
			"count":18,
			"type":"VEC3"
		},
		{
			"bufferView":13,
			"componentType":5126,
			"count":18,
			"type":"VEC2"
		},
		{
			"bufferView":14,
			"componentType":5123,
			"count":24,
			"type":"SCALAR"
		},
		{
			"bufferView":15,
			"componentType":5126,
			"count":42,
			"max":[
				0.31550002098083496,
				0.020999997854232788,
				0.30000001192092896
			],
			"min":[
				-0.3165000081062317,
				-0.020999997854232788,
				-0.38200002908706665
			],
			"type":"VEC3"
		},
		{
			"bufferView":16,
			"componentType":5126,
			"count":42,
			"type":"VEC3"
		},
		{
			"bufferView":17,
			"componentType":5126,
			"count":42,
			"type":"VEC2"
		},
		{
			"bufferView":18,
			"componentType":5123,
			"count":108,
			"type":"SCALAR"
		},
		{
			"bufferView":19,
			"componentType":5126,
			"count":490,
			"max":[
				0.19700001180171967,
				0.020999997854232788,
				0.30900001525878906
			],
			"min":[
				-0.18900001049041748,
				-0.020999997854232788,
				-0.39100003242492676
			],
			"type":"VEC3"
		},
		{
			"bufferView":20,
			"componentType":5126,
			"count":490,
			"type":"VEC3"
		},
		{
			"bufferView":21,
			"componentType":5126,
			"count":490,
			"type":"VEC2"
		},
		{
			"bufferView":22,
			"componentType":5123,
			"count":1452,
			"type":"SCALAR"
		},
		{
			"bufferView":23,
			"componentType":5126,
			"count":54,
			"max":[
				0.5199999809265137,
				0.020999997854232788,
				0.3060000240802765
			],
			"min":[
				-0.5210000276565552,
				-0.020999997854232788,
				-0.38200002908706665
			],
			"type":"VEC3"
		},
		{
			"bufferView":24,
			"componentType":5126,
			"count":54,
			"type":"VEC3"
		},
		{
			"bufferView":25,
			"componentType":5126,
			"count":54,
			"type":"VEC2"
		},
		{
			"bufferView":26,
			"componentType":5123,
			"count":144,
			"type":"SCALAR"
		},
		{
			"bufferView":27,
			"componentType":5126,
			"count":50,
			"max":[
				0.22100001573562622,
				0.020999997854232788,
				0.30000001192092896
			],
			"min":[
				-0.17499999701976776,
				-0.020999997854232788,
				-0.38200002908706665
			],
			"type":"VEC3"
		},
		{
			"bufferView":28,
			"componentType":5126,
			"count":50,
			"type":"VEC3"
		},
		{
			"bufferView":29,
			"componentType":5126,
			"count":50,
			"type":"VEC2"
		},
		{
			"bufferView":30,
			"componentType":5123,
			"count":132,
			"type":"SCALAR"
		},
		{
			"bufferView":31,
			"componentType":5126,
			"count":24,
			"max":[
				0.9999960064888,
				1,
				-14
			],
			"min":[
				-1.000004529953003,
				-1,
				-16
			],
			"type":"VEC3"
		},
		{
			"bufferView":32,
			"componentType":5126,
			"count":24,
			"type":"VEC3"
		},
		{
			"bufferView":33,
			"componentType":5126,
			"count":24,
			"type":"VEC2"
		},
		{
			"bufferView":34,
			"componentType":5123,
			"count":36,
			"type":"SCALAR"
		}
	],
	"bufferViews":[
		{
			"buffer":0,
			"byteLength":288,
			"byteOffset":0,
			"target":34962
		},
		{
			"buffer":0,
			"byteLength":288,
			"byteOffset":288,
			"target":34962
		},
		{
			"buffer":0,
			"byteLength":192,
			"byteOffset":576,
			"target":34962
		},
		{
			"buffer":0,
			"byteLength":72,
			"byteOffset":768,
			"target":34963
		},
		{
			"buffer":0,
			"byteLength":288,
			"byteOffset":840,
			"target":34962
		},
		{
			"buffer":0,
			"byteLength":288,
			"byteOffset":1128,
			"target":34962
		},
		{
			"buffer":0,
			"byteLength":192,
			"byteOffset":1416,
			"target":34962
		},
		{
			"buffer":0,
			"byteLength":576,
			"byteOffset":1608,
			"target":34962
		},
		{
			"buffer":0,
			"byteLength":576,
			"byteOffset":2184,
			"target":34962
		},
		{
			"buffer":0,
			"byteLength":384,
			"byteOffset":2760,
			"target":34962
		},
		{
			"buffer":0,
			"byteLength":168,
			"byteOffset":3144,
			"target":34963
		},
		{
			"buffer":0,
			"byteLength":216,
			"byteOffset":3312,
			"target":34962
		},
		{
			"buffer":0,
			"byteLength":216,
			"byteOffset":3528,
			"target":34962
		},
		{
			"buffer":0,
			"byteLength":144,
			"byteOffset":3744,
			"target":34962
		},
		{
			"buffer":0,
			"byteLength":48,
			"byteOffset":3888,
			"target":34963
		},
		{
			"buffer":0,
			"byteLength":504,
			"byteOffset":3936,
			"target":34962
		},
		{
			"buffer":0,
			"byteLength":504,
			"byteOffset":4440,
			"target":34962
		},
		{
			"buffer":0,
			"byteLength":336,
			"byteOffset":4944,
			"target":34962
		},
		{
			"buffer":0,
			"byteLength":216,
			"byteOffset":5280,
			"target":34963
		},
		{
			"buffer":0,
			"byteLength":5880,
			"byteOffset":5496,
			"target":34962
		},
		{
			"buffer":0,
			"byteLength":5880,
			"byteOffset":11376,
			"target":34962
		},
		{
			"buffer":0,
			"byteLength":3920,
			"byteOffset":17256,
			"target":34962
		},
		{
			"buffer":0,
			"byteLength":2904,
			"byteOffset":21176,
			"target":34963
		},
		{
			"buffer":0,
			"byteLength":648,
			"byteOffset":24080,
			"target":34962
		},
		{
			"buffer":0,
			"byteLength":648,
			"byteOffset":24728,
			"target":34962
		},
		{
			"buffer":0,
			"byteLength":432,
			"byteOffset":25376,
			"target":34962
		},
		{
			"buffer":0,
			"byteLength":288,
			"byteOffset":25808,
			"target":34963
		},
		{
			"buffer":0,
			"byteLength":600,
			"byteOffset":26096,
			"target":34962
		},
		{
			"buffer":0,
			"byteLength":600,
			"byteOffset":26696,
			"target":34962
		},
		{
			"buffer":0,
			"byteLength":400,
			"byteOffset":27296,
			"target":34962
		},
		{
			"buffer":0,
			"byteLength":264,
			"byteOffset":27696,
			"target":34963
		},
		{
			"buffer":0,
			"byteLength":288,
			"byteOffset":27960,
			"target":34962
		},
		{
			"buffer":0,
			"byteLength":288,
			"byteOffset":28248,
			"target":34962
		},
		{
			"buffer":0,
			"byteLength":192,
			"byteOffset":28536,
			"target":34962
		},
		{
			"buffer":0,
			"byteLength":72,
			"byteOffset":28728,
			"target":34963
		}
	],
	"buffers":[
		{
			"byteLength":28800,
			"uri":"house.bin"
		}
	]
}
