{
	"asset":{
		"generator":"Khronos glTF Blender I/O v5.0.21",
		"version":"2.0"
	},
	"extensionsUsed":[
		"KHR_materials_specular"
	],
	"scene":0,
	"scenes":[
		{
			"name":"Scene",
			"nodes":[
				0
			]
		}
	],
	"nodes":[
		{
			"mesh":0,
			"name":"Pool Collector"
		}
	],
	"materials":[
		{
			"doubleSided":true,
			"extensions":{
				"KHR_materials_specular":{
					"specularColorFactor":[
						0.4000000059604645,
						0.4000000059604645,
						0.4000000059604645
					]
				}
			},
			"name":"Steel - Satin",
			"pbrMetallicRoughness":{
				"baseColorFactor":[
					0.6274510025978088,
					0.6274510025978088,
					0.6274510025978088,
					1
				],
				"metallicFactor":0,
				"roughnessFactor":0.5527864098548889
			}
		}
	],
	"meshes":[
		{
			"name":"Body1.004",
			"primitives":[
				{
					"attributes":{
						"POSITION":0,
						"NORMAL":1,
						"TEXCOORD_0":2
					},
					"indices":3,
					"material":0
				}
			]
		}
	],
	"accessors":[
		{
			"bufferView":0,
			"componentType":5126,
			"count":848,
			"max":[
				7.996432304382324,
				1.1675318479537964,
				-9.477387428283691
			],
			"min":[
				7.576431751251221,
				0.464711457490921,
				-13.477387428283691
			],
			"type":"VEC3"
		},
		{
			"bufferView":1,
			"componentType":5126,
			"count":848,
			"type":"VEC3"
		},
		{
			"bufferView":2,
			"componentType":5126,
			"count":848,
			"type":"VEC2"
		},
		{
			"bufferView":3,
			"componentType":5123,
			"count":2706,
			"type":"SCALAR"
		}
	],
	"bufferViews":[
		{
			"buffer":0,
			"byteLength":10176,
			"byteOffset":0,
			"target":34962
		},
		{
			"buffer":0,
			"byteLength":10176,
			"byteOffset":10176,
			"target":34962
		},
		{
			"buffer":0,
			"byteLength":6784,
			"byteOffset":20352,
			"target":34962
		},
		{
			"buffer":0,
			"byteLength":5412,
			"byteOffset":27136,
			"target":34963
		}
	],
	"buffers":[
		{
			"byteLength":32548,
			"uri":"poolCollector.bin"
		}
	]
}
