{
	"asset":{
		"generator":"Khronos glTF Blender I/O v5.0.21",
		"version":"2.0"
	},
	"extensionsUsed":[
		"KHR_materials_specular"
	],
	"scene":0,
	"scenes":[
		{
			"name":"Scene",
			"nodes":[
				0,
				1,
				2,
				3,
				4,
				5,
				6,
				7,
				8,
				9,
				10,
				11,
				12,
				13,
				14,
				15,
				16
			]
		}
	],
	"nodes":[
		{
			"mesh":0,
			"name":"Shed Collector"
		},
		{
			"mesh":1,
			"name":"Garage Collector 0",
			"translation":[
				7.250001907348633,
				6.487310409545898,
				2.2629971504211426
			]
		},
		{
			"mesh":2,
			"name":"Roof Collector"
		},
		{
			"mesh":3,
			"name":"Pool Collector"
		},
		{
			"mesh":4,
			"name":"Garage Collector 5",
			"rotation":[
				0,
				0.006823575124144554,
				0.04308236017823219,
				0.9990482330322266
			],
			"translation":[
				7.2527055740356445,
				6.487310409545898,
				2.2629971504211426
			]
		},
		{
			"mesh":5,
			"name":"Garage Collector 10",
			"rotation":[
				0,
				0.01363416388630867,
				0.08608271181583405,
				0.9961947202682495
			],
			"translation":[
				7.260719299316406,
				6.487310409545898,
				2.2629971504211426
			]
		},
		{
			"mesh":6,
			"name":"Garage Collector 15",
			"rotation":[
				0,
				0.020418796688318253,
				0.12891919910907745,
				0.9914448857307434
			],
			"translation":[
				7.273978233337402,
				6.487310409545898,
				2.2629971504211426
			]
		},
		{
			"mesh":7,
			"name":"Garage Collector 20",
			"rotation":[
				0,
				0.027164559811353683,
				0.171510249376297,
				0.9848077893257141
			],
			"translation":[
				7.29238224029541,
				6.487310409545898,
				2.2629971504211426
			]
		},
		{
			"mesh":8,
			"name":"Garage Collector 25",
			"rotation":[
				0,
				0.03385861963033676,
				0.21377484500408173,
				0.9762960076332092
			],
			"translation":[
				7.315791130065918,
				6.487310409545898,
				2.2629971504211426
			]
		},
		{
			"mesh":9,
			"name":"Garage Collector 30",
			"rotation":[
				0,
				0.04048822075128555,
				0.25563254952430725,
				0.9659258723258972
			],
			"translation":[
				7.344026565551758,
				6.487310409545898,
				2.2629971504211426
			]
		},
		{
			"mesh":10,
			"name":"Garage Collector 35",
			"rotation":[
				0,
				0.04704076424241066,
				0.2970036268234253,
				0.953717052936554
			],
			"translation":[
				7.376873970031738,
				6.487310409545898,
				2.2629971504211426
			]
		},
		{
			"mesh":11,
			"name":"Garage Collector 40",
			"rotation":[
				0,
				0.05350376293063164,
				0.337809294462204,
				0.9396927356719971
			],
			"translation":[
				7.414083003997803,
				6.487310409545898,
				2.2629971504211426
			]
		},
		{
			"mesh":12,
			"name":"Garage Collector 45",
			"rotation":[
				0,
				0.05986490473151207,
				0.37797194719314575,
				0.9238795638084412
			],
			"translation":[
				7.455370903015137,
				6.487310409545898,
				2.2629971504211426
			]
		},
		{
			"mesh":13,
			"name":"Garage Collector 50",
			"rotation":[
				0,
				0.06611207872629166,
				0.4174151122570038,
				0.9063078165054321
			],
			"translation":[
				7.500767707824707,
				6.487310409545898,
				2.2629971504211426
			]
		},
		{
			"mesh":14,
			"name":"Garage Collector 55",
			"rotation":[
				0,
				0.0722334086894989,
				0.45606374740600586,
				0.8870108723640442
			],
			"translation":[
				7.549614906311035,
				6.487310409545898,
				2.2629971504211426
			]
		},
		{
			"mesh":15,
			"name":"Garage Collector 60",
			"rotation":[
				0,
				0.07821723818778992,
				0.4938441514968872,
				0.8660253882408142
			],
			"translation":[
				7.601141452789307,
				6.487310409545898,
				2.2629971504211426
			]
		},
		{
			"mesh":16,
			"name":"Garage Collector 65",
			"rotation":[
				0,
				0.08405221253633499,
				0.5306846499443054,
				0.8433915376663208
			],
			"translation":[
				7.655728340148926,
				6.487310409545898,
				2.2629971504211426
			]
		}
	],
	"materials":[
		{
			"doubleSided":true,
			"extensions":{
				"KHR_materials_specular":{
					"specularColorFactor":[
						0.4000000059604645,
						0.4000000059604645,
						0.4000000059604645
					]
				}
			},
			"name":"Steel - Satin",
			"pbrMetallicRoughness":{
				"baseColorFactor":[
					0.6274510025978088,
					0.6274510025978088,
					0.6274510025978088,
					1
				],
				"metallicFactor":0,
				"roughnessFactor":0.5527864098548889
			}
		}
	],
	"meshes":[
		{
			"name":"Body1.001",
			"primitives":[
				{
					"attributes":{
						"POSITION":0,
						"NORMAL":1,
						"TEXCOORD_0":2
					},
					"indices":3,
					"material":0
				}
			]
		},
		{
			"name":"Body1.002",
			"primitives":[
				{
					"attributes":{
						"POSITION":4,
						"NORMAL":5,
						"TEXCOORD_0":6
					},
					"indices":7,
					"material":0
				}
			]
		},
		{
			"name":"Body1.003",
			"primitives":[
				{
					"attributes":{
						"POSITION":8,
						"NORMAL":9,
						"TEXCOORD_0":10
					},
					"indices":11,
					"material":0
				}
			]
		},
		{
			"name":"Body1.004",
			"primitives":[
				{
					"attributes":{
						"POSITION":12,
						"NORMAL":13,
						"TEXCOORD_0":14
					},
					"indices":15,
					"material":0
				}
			]
		},
		{
			"name":"Body1.006",
			"primitives":[
				{
					"attributes":{
						"POSITION":16,
						"NORMAL":17,
						"TEXCOORD_0":18
					},
					"indices":7,
					"material":0
				}
			]
		},
		{
			"name":"Body1.007",
			"primitives":[
				{
					"attributes":{
						"POSITION":19,
						"NORMAL":20,
						"TEXCOORD_0":21
					},
					"indices":7,
					"material":0
				}
			]
		},
		{
			"name":"Body1.008",
			"primitives":[
				{
					"attributes":{
						"POSITION":22,
						"NORMAL":23,
						"TEXCOORD_0":24
					},
					"indices":7,
					"material":0
				}
			]
		},
		{
			"name":"Body1.009",
			"primitives":[
				{
					"attributes":{
						"POSITION":25,
						"NORMAL":26,
						"TEXCOORD_0":27
					},
					"indices":7,
					"material":0
				}
			]
		},
		{
			"name":"Body1.010",
			"primitives":[
				{
					"attributes":{
						"POSITION":28,
						"NORMAL":29,
						"TEXCOORD_0":30
					},
					"indices":7,
					"material":0
				}
			]
		},
		{
			"name":"Body1.011",
			"primitives":[
				{
					"attributes":{
						"POSITION":31,
						"NORMAL":32,
						"TEXCOORD_0":33
					},
					"indices":7,
					"material":0
				}
			]
		},
		{
			"name":"Body1.012",
			"primitives":[
				{
					"attributes":{
						"POSITION":34,
						"NORMAL":35,
						"TEXCOORD_0":36
					},
					"indices":7,
					"material":0
				}
			]
		},
		{
			"name":"Body1.013",
			"primitives":[
				{
					"attributes":{
						"POSITION":37,
						"NORMAL":38,
						"TEXCOORD_0":39
					},
					"indices":7,
					"material":0
				}
			]
		},
		{
			"name":"Body1.014",
			"primitives":[
				{
					"attributes":{
						"POSITION":40,
						"NORMAL":41,
						"TEXCOORD_0":42
					},
					"indices":7,
					"material":0
				}
			]
		},
		{
			"name":"Body1.015",
			"primitives":[
				{
					"attributes":{
						"POSITION":43,
						"NORMAL":44,
						"TEXCOORD_0":45
					},
					"indices":7,
					"material":0
				}
			]
		},
		{
			"name":"Body1.017",
			"primitives":[
				{
					"attributes":{
						"POSITION":46,
						"NORMAL":47,
						"TEXCOORD_0":48
					},
					"indices":7,
					"material":0
				}
			]
		},
		{
			"name":"Body1.018",
			"primitives":[
				{
					"attributes":{
						"POSITION":49,
						"NORMAL":50,
						"TEXCOORD_0":51
					},
					"indices":7,
					"material":0
				}
			]
		},
		{
			"name":"Body1.019",
			"primitives":[
				{
					"attributes":{
						"POSITION":52,
						"NORMAL":53,
						"TEXCOORD_0":54
					},
					"indices":7,
					"material":0
				}
			]
		}
	],
	"accessors":[
		{
			"bufferView":0,
			"componentType":5126,
			"count":32,
			"max":[
				7.950000762939453,
				5.161446571350098,
				-0.4000031650066376
			],
			"min":[
				7.249998092651367,
				3.867344856262207,
				-6.100003719329834
			],
			"type":"VEC3"
		},
		{
			"bufferView":1,
			"componentType":5126,
			"count":32,
			"type":"VEC3"
		},
		{
			"bufferView":2,
			"componentType":5126,
			"count":32,
			"type":"VEC2"
		},
		{
			"bufferView":3,
			"componentType":5123,
			"count":60,
			"type":"SCALAR"
		},
		{
			"bufferView":4,
			"componentType":5126,
			"count":24,
			"max":[
				0.7000012397766113,
				0.4890470504760742,
				2.9630002975463867
			],
			"min":[
				-9.5367431640625e-07,
				-0.46929359436035156,
				-2.9661290645599365
			],
			"type":"VEC3"
		},
		{
			"bufferView":5,
			"componentType":5126,
			"count":24,
			"type":"VEC3"
		},
		{
			"bufferView":6,
			"componentType":5126,
			"count":24,
			"type":"VEC2"
		},
		{
			"bufferView":7,
			"componentType":5123,
			"count":36,
			"type":"SCALAR"
		},
		{
			"bufferView":8,
			"componentType":5126,
			"count":24,
			"max":[
				5.099999904632568,
				10.401573181152344,
				-1.661790975049371e-06
			],
			"min":[
				4.399998664855957,
				7.5648603439331055,
				-5.311259746551514
			],
			"type":"VEC3"
		},
		{
			"bufferView":9,
			"componentType":5126,
			"count":24,
			"type":"VEC3"
		},
		{
			"bufferView":10,
			"componentType":5126,
			"count":24,
			"type":"VEC2"
		},
		{
			"bufferView":11,
			"componentType":5123,
			"count":36,
			"type":"SCALAR"
		},
		{
			"bufferView":12,
			"componentType":5126,
			"count":848,
			"max":[
				7.996432304382324,
				1.1675318479537964,
				-9.477387428283691
			],
			"min":[
				7.576431751251221,
				0.464711457490921,
				-13.477387428283691
			],
			"type":"VEC3"
		},
		{
			"bufferView":13,
			"componentType":5126,
			"count":848,
			"type":"VEC3"
		},
		{
			"bufferView":14,
			"componentType":5126,
			"count":848,
			"type":"VEC2"
		},
		{
			"bufferView":15,
			"componentType":5123,
			"count":2706,
			"type":"SCALAR"
		},
		{
			"bufferView":16,
			"componentType":5126,
			"count":24,
			"max":[
				0.7000012397766113,
				0.4890470504760742,
				2.9630002975463867
			],
			"min":[
				-9.5367431640625e-07,
				-0.46929359436035156,
				-2.9661290645599365
			],
			"type":"VEC3"
		},
		{
			"bufferView":17,
			"componentType":5126,
			"count":24,
			"type":"VEC3"
		},
		{
			"bufferView":18,
			"componentType":5126,
			"count":24,
			"type":"VEC2"
		},
		{
			"bufferView":19,
			"componentType":5126,
			"count":24,
			"max":[
				0.7000012397766113,
				0.4890470504760742,
				2.9630002975463867
			],
			"min":[
				-9.5367431640625e-07,
				-0.46929359436035156,
				-2.9661290645599365
			],
			"type":"VEC3"
		},
		{
			"bufferView":20,
			"componentType":5126,
			"count":24,
			"type":"VEC3"
		},
		{
			"bufferView":21,
			"componentType":5126,
			"count":24,
			"type":"VEC2"
		},
		{
			"bufferView":22,
			"componentType":5126,
			"count":24,
			"max":[
				0.7000012397766113,
				0.4890470504760742,
				2.9630002975463867
			],
			"min":[
				-9.5367431640625e-07,
				-0.46929359436035156,
				-2.9661290645599365
			],
			"type":"VEC3"
		},
		{
			"bufferView":23,
			"componentType":5126,
			"count":24,
			"type":"VEC3"
		},
		{
			"bufferView":24,
			"componentType":5126,
			"count":24,
			"type":"VEC2"
		},
		{
			"bufferView":25,
			"componentType":5126,
			"count":24,
			"max":[
				0.7000012397766113,
				0.4890470504760742,
				2.9630002975463867
			],
			"min":[
				-9.5367431640625e-07,
				-0.46929359436035156,
				-2.9661290645599365
			],
			"type":"VEC3"
		},
		{
			"bufferView":26,
			"componentType":5126,
			"count":24,
			"type":"VEC3"
		},
		{
			"bufferView":27,
			"componentType":5126,
			"count":24,
			"type":"VEC2"
		},
		{
			"bufferView":28,
			"componentType":5126,
			"count":24,
			"max":[
				0.7000012397766113,
				0.4890470504760742,
				2.9630002975463867
			],
			"min":[
				-9.5367431640625e-07,
				-0.46929359436035156,
				-2.9661290645599365
			],
			"type":"VEC3"
		},
		{
			"bufferView":29,
			"componentType":5126,
			"count":24,
			"type":"VEC3"
		},
		{
			"bufferView":30,
			"componentType":5126,
			"count":24,
			"type":"VEC2"
		},
		{
			"bufferView":31,
			"componentType":5126,
			"count":24,
			"max":[
				0.7000012397766113,
				0.4890470504760742,
				2.9630002975463867
			],
			"min":[
				-9.5367431640625e-07,
				-0.46929359436035156,
				-2.9661290645599365
			],
			"type":"VEC3"
		},
		{
			"bufferView":32,
			"componentType":5126,
			"count":24,
			"type":"VEC3"
		},
		{
			"bufferView":33,
			"componentType":5126,
			"count":24,
			"type":"VEC2"
		},
		{
			"bufferView":34,
			"componentType":5126,
			"count":24,
			"max":[
				0.7000012397766113,
				0.4890470504760742,
				2.9630002975463867
			],
			"min":[
				-9.5367431640625e-07,
				-0.46929359436035156,
				-2.9661290645599365
			],
			"type":"VEC3"
		},
		{
			"bufferView":35,
			"componentType":5126,
			"count":24,
			"type":"VEC3"
		},
		{
			"bufferView":36,
			"componentType":5126,
			"count":24,
			"type":"VEC2"
		},
		{
			"bufferView":37,
			"componentType":5126,
			"count":24,
			"max":[
				0.7000012397766113,
				0.4890470504760742,
				2.9630002975463867
			],
			"min":[
				-9.5367431640625e-07,
				-0.46929359436035156,
				-2.9661290645599365
			],
			"type":"VEC3"
		},
		{
			"bufferView":38,
			"componentType":5126,
			"count":24,
			"type":"VEC3"
		},
		{
			"bufferView":39,
			"componentType":5126,
			"count":24,
			"type":"VEC2"
		},
		{
			"bufferView":40,
			"componentType":5126,
			"count":24,
			"max":[
				0.7000012397766113,
				0.4890470504760742,
				2.9630002975463867
			],
			"min":[
				-9.5367431640625e-07,
				-0.46929359436035156,
				-2.9661290645599365
			],
			"type":"VEC3"
		},
		{
			"bufferView":41,
			"componentType":5126,
			"count":24,
			"type":"VEC3"
		},
		{
			"bufferView":42,
			"componentType":5126,
			"count":24,
			"type":"VEC2"
		},
		{
			"bufferView":43,
			"componentType":5126,
			"count":24,
			"max":[
				0.7000012397766113,
				0.4890470504760742,
				2.9630002975463867
			],
			"min":[
				-9.5367431640625e-07,
				-0.46929359436035156,
				-2.9661290645599365
			],
			"type":"VEC3"
		},
		{
			"bufferView":44,
			"componentType":5126,
			"count":24,
			"type":"VEC3"
		},
		{
			"bufferView":45,
			"componentType":5126,
			"count":24,
			"type":"VEC2"
		},
		{
			"bufferView":46,
			"componentType":5126,
			"count":24,
			"max":[
				0.7000012397766113,
				0.4890470504760742,
				2.9630002975463867
			],
			"min":[
				-9.5367431640625e-07,
				-0.46929359436035156,
				-2.9661290645599365
			],
			"type":"VEC3"
		},
		{
			"bufferView":47,
			"componentType":5126,
			"count":24,
			"type":"VEC3"
		},
		{
			"bufferView":48,
			"componentType":5126,
			"count":24,
			"type":"VEC2"
		},
		{
			"bufferView":49,
			"componentType":5126,
			"count":24,
			"max":[
				0.7000012397766113,
				0.4890470504760742,
				2.9630002975463867
			],
			"min":[
				-9.5367431640625e-07,
				-0.46929359436035156,
				-2.9661290645599365
			],
			"type":"VEC3"
		},
		{
			"bufferView":50,
			"componentType":5126,
			"count":24,
			"type":"VEC3"
		},
		{
			"bufferView":51,
			"componentType":5126,
			"count":24,
			"type":"VEC2"
		},
		{
			"bufferView":52,
			"componentType":5126,
			"count":24,
			"max":[
				0.7000012397766113,
				0.4890470504760742,
				2.9630002975463867
			],
			"min":[
				-9.5367431640625e-07,
				-0.46929359436035156,
				-2.9661290645599365
			],
			"type":"VEC3"
		},
		{
			"bufferView":53,
			"componentType":5126,
			"count":24,
			"type":"VEC3"
		},
		{
			"bufferView":54,
			"componentType":5126,
			"count":24,
			"type":"VEC2"
		}
	],
	"bufferViews":[
		{
			"buffer":0,
			"byteLength":384,
			"byteOffset":0,
			"target":34962
		},
		{
			"buffer":0,
			"byteLength":384,
			"byteOffset":384,
			"target":34962
		},
		{
			"buffer":0,
			"byteLength":256,
			"byteOffset":768,
			"target":34962
		},
		{
			"buffer":0,
			"byteLength":120,
			"byteOffset":1024,
			"target":34963
		},
		{
			"buffer":0,
			"byteLength":288,
			"byteOffset":1144,
			"target":34962
		},
		{
			"buffer":0,
			"byteLength":288,
			"byteOffset":1432,
			"target":34962
		},
		{
			"buffer":0,
			"byteLength":192,
			"byteOffset":1720,
			"target":34962
		},
		{
			"buffer":0,
			"byteLength":72,
			"byteOffset":1912,
			"target":34963
		},
		{
			"buffer":0,
			"byteLength":288,
			"byteOffset":1984,
			"target":34962
		},
		{
			"buffer":0,
			"byteLength":288,
			"byteOffset":2272,
			"target":34962
		},
		{
			"buffer":0,
			"byteLength":192,
			"byteOffset":2560,
			"target":34962
		},
		{
			"buffer":0,
			"byteLength":72,
			"byteOffset":2752,
			"target":34963
		},
		{
			"buffer":0,
			"byteLength":10176,
			"byteOffset":2824,
			"target":34962
		},
		{
			"buffer":0,
			"byteLength":10176,
			"byteOffset":13000,
			"target":34962
		},
		{
			"buffer":0,
			"byteLength":6784,
			"byteOffset":23176,
			"target":34962
		},
		{
			"buffer":0,
			"byteLength":5412,
			"byteOffset":29960,
			"target":34963
		},
		{
			"buffer":0,
			"byteLength":288,
			"byteOffset":35372,
			"target":34962
		},
		{
			"buffer":0,
			"byteLength":288,
			"byteOffset":35660,
			"target":34962
		},
		{
			"buffer":0,
			"byteLength":192,
			"byteOffset":35948,
			"target":34962
		},
		{
			"buffer":0,
			"byteLength":288,
			"byteOffset":36140,
			"target":34962
		},
		{
			"buffer":0,
			"byteLength":288,
			"byteOffset":36428,
			"target":34962
		},
		{
			"buffer":0,
			"byteLength":192,
			"byteOffset":36716,
			"target":34962
		},
		{
			"buffer":0,
			"byteLength":288,
			"byteOffset":36908,
			"target":34962
		},
		{
			"buffer":0,
			"byteLength":288,
			"byteOffset":37196,
			"target":34962
		},
		{
			"buffer":0,
			"byteLength":192,
			"byteOffset":37484,
			"target":34962
		},
		{
			"buffer":0,
			"byteLength":288,
			"byteOffset":37676,
			"target":34962
		},
		{
			"buffer":0,
			"byteLength":288,
			"byteOffset":37964,
			"target":34962
		},
		{
			"buffer":0,
			"byteLength":192,
			"byteOffset":38252,
			"target":34962
		},
		{
			"buffer":0,
			"byteLength":288,
			"byteOffset":38444,
			"target":34962
		},
		{
			"buffer":0,
			"byteLength":288,
			"byteOffset":38732,
			"target":34962
		},
		{
			"buffer":0,
			"byteLength":192,
			"byteOffset":39020,
			"target":34962
		},
		{
			"buffer":0,
			"byteLength":288,
			"byteOffset":39212,
			"target":34962
		},
		{
			"buffer":0,
			"byteLength":288,
			"byteOffset":39500,
			"target":34962
		},
		{
			"buffer":0,
			"byteLength":192,
			"byteOffset":39788,
			"target":34962
		},
		{
			"buffer":0,
			"byteLength":288,
			"byteOffset":39980,
			"target":34962
		},
		{
			"buffer":0,
			"byteLength":288,
			"byteOffset":40268,
			"target":34962
		},
		{
			"buffer":0,
			"byteLength":192,
			"byteOffset":40556,
			"target":34962
		},
		{
			"buffer":0,
			"byteLength":288,
			"byteOffset":40748,
			"target":34962
		},
		{
			"buffer":0,
			"byteLength":288,
			"byteOffset":41036,
			"target":34962
		},
		{
			"buffer":0,
			"byteLength":192,
			"byteOffset":41324,
			"target":34962
		},
		{
			"buffer":0,
			"byteLength":288,
			"byteOffset":41516,
			"target":34962
		},
		{
			"buffer":0,
			"byteLength":288,
			"byteOffset":41804,
			"target":34962
		},
		{
			"buffer":0,
			"byteLength":192,
			"byteOffset":42092,
			"target":34962
		},
		{
			"buffer":0,
			"byteLength":288,
			"byteOffset":42284,
			"target":34962
		},
		{
			"buffer":0,
			"byteLength":288,
			"byteOffset":42572,
			"target":34962
		},
		{
			"buffer":0,
			"byteLength":192,
			"byteOffset":42860,
			"target":34962
		},
		{
			"buffer":0,
			"byteLength":288,
			"byteOffset":43052,
			"target":34962
		},
		{
			"buffer":0,
			"byteLength":288,
			"byteOffset":43340,
			"target":34962
		},
		{
			"buffer":0,
			"byteLength":192,
			"byteOffset":43628,
			"target":34962
		},
		{
			"buffer":0,
			"byteLength":288,
			"byteOffset":43820,
			"target":34962
		},
		{
			"buffer":0,
			"byteLength":288,
			"byteOffset":44108,
			"target":34962
		},
		{
			"buffer":0,
			"byteLength":192,
			"byteOffset":44396,
			"target":34962
		},
		{
			"buffer":0,
			"byteLength":288,
			"byteOffset":44588,
			"target":34962
		},
		{
			"buffer":0,
			"byteLength":288,
			"byteOffset":44876,
			"target":34962
		},
		{
			"buffer":0,
			"byteLength":192,
			"byteOffset":45164,
			"target":34962
		}
	],
	"buffers":[
		{
			"byteLength":45356,
			"uri":"solarCollectors.bin"
		}
	]
}
